<svg width="120" height="40" viewBox="0 0 120 40" fill="none" xmlns="http://www.w3.org/2000/svg">
<g clip-path="url(#clip0_719_207020)">
<path d="M110.303 0.00013H9.70265C9.33595 0.00013 8.97365 0.00013 8.60792 0.00213C8.30177 0.00413 7.99806 0.00994 7.68897 0.01483C7.01748 0.0227318 6.34758 0.0818063 5.68507 0.19154C5.02349 0.303663 4.38264 0.515046 3.78419 0.81854C3.18647 1.1246 2.64031 1.5223 2.16554 1.9972C1.68827 2.47077 1.29043 3.01815 0.987319 3.61829C0.683369 4.21724 0.472609 4.85907 0.362319 5.52161C0.25098 6.18332 0.191067 6.85265 0.183119 7.52361C0.173839 7.83021 0.172859 8.13783 0.167969 8.44447V31.5587C0.172859 31.8692 0.173839 32.17 0.183119 32.4806C0.19107 33.1516 0.250982 33.8209 0.362319 34.4825C0.472305 35.1455 0.683077 35.7877 0.987319 36.3868C1.29029 36.985 1.68819 37.5302 2.16554 38.0011C2.63851 38.4781 3.18502 38.8761 3.78419 39.1798C4.38264 39.4841 5.02342 39.6968 5.68507 39.8106C6.34769 39.9195 7.01753 39.9786 7.68897 39.9874C7.99806 39.9942 8.30177 39.9981 8.60792 39.9981C8.97364 40.0001 9.33597 40.0001 9.70265 40.0001H110.303C110.662 40.0001 111.027 40.0001 111.387 39.9981C111.691 39.9981 112.004 39.9942 112.309 39.9874C112.979 39.9791 113.647 39.92 114.309 39.8106C114.972 39.696 115.616 39.4834 116.217 39.1798C116.815 38.8759 117.361 38.478 117.834 38.0011C118.31 37.5284 118.709 36.9836 119.016 36.3868C119.318 35.7872 119.526 35.1451 119.635 34.4825C119.746 33.8208 119.808 33.1516 119.82 32.4806C119.824 32.17 119.824 31.8692 119.824 31.5587C119.832 31.1954 119.832 30.8341 119.832 30.4649V9.53626C119.832 9.17005 119.832 8.80677 119.824 8.44447C119.824 8.13783 119.824 7.83021 119.82 7.52357C119.808 6.85255 119.746 6.18337 119.635 5.52157C119.526 4.85941 119.317 4.21763 119.016 3.61825C118.398 2.41533 117.42 1.43616 116.217 0.81845C115.615 0.515697 114.972 0.30437 114.309 0.19145C113.648 0.0812328 112.979 0.0221378 112.309 0.01469C112.004 0.00981 111.691 0.00395 111.387 0.002C111.027 0 110.662 0 110.303 0V0.00013Z" fill="#A6A6A6"/>
<path d="M8.61284 39.125C8.30816 39.125 8.01084 39.1211 7.70855 39.1143C7.08233 39.1061 6.45757 39.0516 5.83941 38.9512C5.263 38.8519 4.70461 38.6673 4.18267 38.4033C3.66551 38.1415 3.19382 37.7983 2.78567 37.3867C2.37161 36.98 2.02688 36.5082 1.76516 35.9902C1.50054 35.4688 1.31742 34.9099 1.22216 34.333C1.11928 33.7131 1.06362 33.0863 1.05566 32.458C1.04932 32.2471 1.04102 31.5449 1.04102 31.5449V8.44434C1.04102 8.44434 1.04986 7.75293 1.05571 7.5498C1.06333 6.92248 1.11867 6.29665 1.22124 5.67773C1.31667 5.09925 1.49994 4.53875 1.7647 4.01563C2.02546 3.49794 2.36827 3.02586 2.77984 2.61768C3.19094 2.20562 3.66414 1.8606 4.18218 1.59521C4.70292 1.33209 5.26025 1.14873 5.8355 1.05127C6.45569 0.949836 7.08262 0.894996 7.71101 0.88721L8.61333 0.875H111.382L112.295 0.8877C112.918 0.895099 113.539 0.94945 114.153 1.05029C114.734 1.14898 115.298 1.33362 115.824 1.59814C116.862 2.13299 117.707 2.97916 118.239 4.01807C118.5 4.53758 118.68 5.09351 118.774 5.66699C118.878 6.29099 118.936 6.92174 118.948 7.5542C118.951 7.8374 118.951 8.1416 118.951 8.44434C118.959 8.81934 118.959 9.17627 118.959 9.53613V30.4648C118.959 30.8281 118.959 31.1826 118.951 31.54C118.951 31.8652 118.951 32.1631 118.947 32.4697C118.936 33.0909 118.878 33.7104 118.776 34.3232C118.683 34.9043 118.501 35.4675 118.236 35.9932C117.973 36.5056 117.63 36.9733 117.221 37.3789C116.812 37.7927 116.34 38.1379 115.821 38.4014C115.296 38.6674 114.734 38.8527 114.153 38.9512C113.535 39.0522 112.91 39.1067 112.284 39.1143C111.991 39.1211 111.685 39.125 111.387 39.125L110.303 39.127L8.61284 39.125Z" fill="black"/>
<path d="M24.937 20.3003C24.9477 19.4657 25.1694 18.6473 25.5814 17.9213C25.9935 17.1954 26.5824 16.5854 27.2935 16.1483C26.8418 15.5031 26.2458 14.9722 25.553 14.5976C24.8602 14.2231 24.0896 14.0152 23.3024 13.9906C21.6231 13.8143 19.9952 14.9954 19.1395 14.9954C18.2672 14.9954 16.9497 14.0081 15.531 14.0373C14.6133 14.0669 13.7189 14.3338 12.9351 14.8118C12.1512 15.2899 11.5045 15.9629 11.058 16.7651C9.12404 20.1136 10.5666 25.0346 12.4192 27.7412C13.3461 29.0666 14.4294 30.547 15.8469 30.4945C17.2339 30.437 17.752 29.61 19.4263 29.61C21.085 29.61 21.5711 30.4945 23.0173 30.4611C24.5057 30.437 25.4434 29.1299 26.3378 27.792C27.0038 26.8476 27.5162 25.8039 27.8562 24.6995C26.9915 24.3338 26.2536 23.7216 25.7345 22.9393C25.2153 22.157 24.938 21.2392 24.937 20.3003Z" fill="white"/>
<path d="M22.2053 12.2113C23.0168 11.2371 23.4166 9.98494 23.3198 8.7207C22.08 8.85092 20.9347 9.44348 20.1122 10.3803C19.7101 10.838 19.4021 11.3704 19.2059 11.9472C19.0096 12.524 18.929 13.1337 18.9685 13.7417C19.5887 13.7481 20.2022 13.6137 20.7628 13.3486C21.3235 13.0835 21.8167 12.6946 22.2053 12.2113Z" fill="white"/>
<path d="M42.4705 27.1397H37.7371L36.6003 30.4961H34.5955L39.0789 18.0781H41.1619L45.6453 30.4961H43.6062L42.4705 27.1397ZM38.2273 25.5908H41.9793L40.1297 20.1436H40.0779L38.2273 25.5908Z" fill="white"/>
<path d="M55.3279 25.9695C55.3279 28.7829 53.8221 30.5905 51.5496 30.5905C50.9739 30.6207 50.4014 30.4881 49.8976 30.2079C49.3939 29.9278 48.9791 29.5114 48.701 29.0065H48.658V33.4909H46.7996V21.4421H48.5984V22.948H48.6326C48.9236 22.4455 49.3453 22.0313 49.8529 21.7495C50.3605 21.4676 50.9351 21.3287 51.5154 21.3474C53.8132 21.3474 55.3279 23.1638 55.3279 25.9695ZM53.4178 25.9695C53.4178 24.1365 52.4705 22.9314 51.0252 22.9314C49.6052 22.9314 48.6502 24.1618 48.6502 25.9695C48.6502 27.7937 49.6052 29.0154 51.0252 29.0154C52.4705 29.0154 53.4178 27.8191 53.4178 25.9695Z" fill="white"/>
<path d="M65.2928 25.9694C65.2928 28.7829 63.7869 30.5905 61.5144 30.5905C60.9388 30.6206 60.3663 30.488 59.8625 30.2079C59.3587 29.9278 58.944 29.5114 58.6658 29.0065H58.6228V33.4909H56.7644V21.4421H58.5632V22.948H58.5974C58.8884 22.4455 59.3101 22.0313 59.8177 21.7495C60.3254 21.4676 60.8999 21.3287 61.4802 21.3474C63.7781 21.3474 65.2928 23.1638 65.2928 25.9694ZM63.3826 25.9694C63.3826 24.1364 62.4353 22.9314 60.99 22.9314C59.5701 22.9314 58.615 24.1618 58.615 25.9694C58.615 27.7937 59.5701 29.0153 60.99 29.0153C62.4353 29.0153 63.3826 27.8191 63.3826 25.9694H63.3826Z" fill="white"/>
<path d="M71.8787 27.0362C72.0164 28.2676 73.2127 29.0762 74.8474 29.0762C76.4139 29.0762 77.5408 28.2676 77.5408 27.1572C77.5408 26.1934 76.8611 25.6162 75.2517 25.2207L73.6424 24.833C71.3621 24.2822 70.3035 23.2158 70.3035 21.4854C70.3035 19.3428 72.1707 17.8711 74.8221 17.8711C77.4461 17.8711 79.2449 19.3428 79.3055 21.4854H77.4295C77.3172 20.2461 76.2927 19.4981 74.7957 19.4981C73.2986 19.4981 72.2742 20.2549 72.2742 21.3565C72.2742 22.2344 72.9285 22.751 74.5291 23.1465L75.8972 23.4824C78.4451 24.0849 79.5037 25.1084 79.5037 26.9248C79.5037 29.248 77.6531 30.7031 74.7097 30.7031C71.9558 30.7031 70.0964 29.2822 69.9763 27.0361L71.8787 27.0362Z" fill="white"/>
<path d="M83.5144 19.3008V21.4434H85.2361V22.915H83.5144V27.9062C83.5144 28.6816 83.8591 29.043 84.616 29.043C84.8204 29.0394 85.0244 29.0251 85.2273 29V30.4629C84.887 30.5264 84.5412 30.5552 84.1951 30.5488C82.3621 30.5488 81.6472 29.8603 81.6472 28.1045V22.915H80.3308V21.4434H81.6472V19.3008H83.5144Z" fill="white"/>
<path d="M86.2332 25.9707C86.2332 23.1221 87.9109 21.332 90.5271 21.332C93.1521 21.332 94.822 23.122 94.822 25.9707C94.822 28.8272 93.1609 30.6094 90.5271 30.6094C87.8942 30.6094 86.2332 28.8271 86.2332 25.9707ZM92.9285 25.9707C92.9285 24.0166 92.033 22.8633 90.5271 22.8633C89.0212 22.8633 88.1267 24.0254 88.1267 25.9707C88.1267 27.9326 89.0212 29.0772 90.5271 29.0772C92.033 29.0772 92.9284 27.9326 92.9284 25.9707H92.9285Z" fill="white"/>
<path d="M96.3543 21.442H98.1267V22.983H98.1697C98.2896 22.5017 98.5716 22.0764 98.9682 21.7785C99.3648 21.4806 99.8518 21.3284 100.347 21.3473C100.562 21.3465 100.775 21.3698 100.984 21.4166V23.1549C100.714 23.0723 100.432 23.0343 100.149 23.0426C99.8792 23.0316 99.61 23.0792 99.3602 23.1821C99.1104 23.285 98.8857 23.4408 98.7018 23.6386C98.5178 23.8365 98.3788 24.0719 98.2944 24.3286C98.21 24.5852 98.1821 24.8571 98.2126 25.1256V30.4957H96.3542L96.3543 21.442Z" fill="white"/>
<path d="M109.552 27.8379C109.302 29.4814 107.702 30.6094 105.654 30.6094C103.02 30.6094 101.385 28.8447 101.385 26.0137C101.385 23.1738 103.029 21.332 105.576 21.332C108.081 21.332 109.656 23.0527 109.656 25.7978V26.4346H103.261V26.5469C103.232 26.8801 103.274 27.2157 103.384 27.5316C103.494 27.8474 103.67 28.1362 103.901 28.3787C104.131 28.6213 104.41 28.8121 104.72 28.9384C105.03 29.0647 105.363 29.1236 105.697 29.1113C106.136 29.1525 106.577 29.0508 106.954 28.8213C107.33 28.5919 107.623 28.247 107.788 27.8379L109.552 27.8379ZM103.27 25.1357H107.797C107.813 24.8361 107.768 24.5363 107.663 24.2551C107.559 23.9739 107.397 23.7174 107.188 23.5016C106.98 23.2858 106.729 23.1155 106.451 23.0013C106.174 22.8871 105.876 22.8314 105.576 22.8379C105.273 22.8361 104.973 22.8942 104.693 23.009C104.413 23.1237 104.159 23.2928 103.944 23.5064C103.73 23.72 103.56 23.974 103.444 24.2537C103.329 24.5333 103.269 24.8331 103.27 25.1357V25.1357Z" fill="white"/>
<path d="M37.9941 8.73138C38.3838 8.70342 38.7747 8.76228 39.1388 8.90371C39.5029 9.04515 39.8311 9.26563 40.0997 9.54925C40.3683 9.83288 40.5706 10.1726 40.692 10.5438C40.8134 10.9151 40.8509 11.3087 40.8018 11.6962C40.8018 13.6025 39.7715 14.6982 37.9941 14.6982H35.8389V8.73138H37.9941ZM36.7656 13.8544H37.8906C38.169 13.871 38.4476 13.8254 38.7062 13.7208C38.9647 13.6161 39.1967 13.4552 39.3852 13.2496C39.5737 13.0441 39.7139 12.7991 39.7958 12.5324C39.8777 12.2658 39.899 11.9843 39.8584 11.7084C39.8961 11.4335 39.8725 11.1538 39.7894 10.8891C39.7063 10.6244 39.5657 10.3814 39.3776 10.1775C39.1896 9.97358 38.9587 9.81378 38.7016 9.70954C38.4445 9.6053 38.1676 9.55922 37.8906 9.57459H36.7656V13.8544Z" fill="white"/>
<path d="M41.8487 12.4458C41.8204 12.1498 41.8542 11.8513 41.9481 11.5692C42.0419 11.2871 42.1936 11.0278 42.3936 10.8078C42.5935 10.5878 42.8372 10.4121 43.1091 10.2918C43.3809 10.1715 43.6749 10.1094 43.9722 10.1094C44.2695 10.1094 44.5635 10.1715 44.8353 10.2918C45.1072 10.4121 45.3509 10.5878 45.5508 10.8078C45.7508 11.0278 45.9025 11.2871 45.9964 11.5692C46.0902 11.8513 46.124 12.1498 46.0957 12.4458C46.1246 12.742 46.0911 13.041 45.9975 13.3235C45.904 13.606 45.7523 13.8658 45.5523 14.0862C45.3523 14.3067 45.1084 14.4828 44.8363 14.6033C44.5642 14.7239 44.2698 14.7861 43.9722 14.7861C43.6746 14.7861 43.3802 14.7239 43.1081 14.6033C42.836 14.4828 42.5921 14.3067 42.3921 14.0862C42.1921 13.8658 42.0405 13.606 41.9469 13.3235C41.8533 13.041 41.8198 12.742 41.8487 12.4458ZM45.1817 12.4458C45.1817 11.4697 44.7432 10.8989 43.9737 10.8989C43.2012 10.8989 42.7667 11.4697 42.7667 12.4458C42.7667 13.4297 43.2012 13.9961 43.9737 13.9961C44.7432 13.996 45.1817 13.4257 45.1817 12.4458H45.1817Z" fill="white"/>
<path d="M51.7412 14.6982H50.8193L49.8887 11.3818H49.8184L48.8916 14.6982H47.9785L46.7373 10.1953H47.6387L48.4453 13.6313H48.5117L49.4375 10.1953H50.29L51.2158 13.6313H51.2861L52.0889 10.1953H52.9775L51.7412 14.6982Z" fill="white"/>
<path d="M54.0215 10.1949H54.877V10.9102H54.9434C55.056 10.6533 55.246 10.4379 55.4869 10.2941C55.7278 10.1503 56.0075 10.0852 56.2871 10.1079C56.5062 10.0915 56.7262 10.1245 56.9308 10.2046C57.1354 10.2847 57.3194 10.4098 57.469 10.5707C57.6187 10.7315 57.7303 10.924 57.7955 11.1338C57.8607 11.3436 57.8779 11.5654 57.8457 11.7827V14.6977H56.957V12.0059C56.957 11.2823 56.6426 10.9224 55.9854 10.9224C55.8366 10.9155 55.6881 10.9408 55.55 10.9966C55.412 11.0525 55.2876 11.1375 55.1855 11.2459C55.0834 11.3543 55.0059 11.4834 54.9584 11.6246C54.9108 11.7657 54.8944 11.9154 54.9102 12.0635V14.6978H54.0215L54.0215 10.1949Z" fill="white"/>
<path d="M59.2617 8.4375H60.1504V14.6982H59.2617V8.4375Z" fill="white"/>
<path d="M61.3858 12.4439C61.3575 12.1479 61.3913 11.8494 61.4852 11.5673C61.5791 11.2852 61.7308 11.0259 61.9308 10.8059C62.1308 10.5859 62.3745 10.4101 62.6464 10.2898C62.9182 10.1696 63.2122 10.1074 63.5095 10.1074C63.8068 10.1074 64.1008 10.1696 64.3727 10.2898C64.6446 10.4101 64.8883 10.5859 65.0883 10.8059C65.2882 11.0259 65.44 11.2852 65.5339 11.5673C65.6277 11.8494 65.6616 12.1479 65.6333 12.4439C65.6621 12.7401 65.6286 13.0391 65.535 13.3216C65.4414 13.6042 65.2897 13.864 65.0897 14.0844C64.8897 14.3048 64.6458 14.4809 64.3736 14.6014C64.1015 14.722 63.8072 14.7842 63.5095 14.7842C63.2119 14.7842 62.9176 14.722 62.6454 14.6014C62.3733 14.4809 62.1294 14.3048 61.9294 14.0844C61.7294 13.864 61.5777 13.6042 61.484 13.3216C61.3904 13.0391 61.3569 12.7401 61.3858 12.4439ZM64.7188 12.4439C64.7188 11.4678 64.2803 10.897 63.5108 10.897C62.7383 10.897 62.3038 11.4678 62.3038 12.4439C62.3038 13.4278 62.7383 13.9942 63.5108 13.9942C64.2803 13.9942 64.7188 13.4239 64.7188 12.4439H64.7188Z" fill="white"/>
<path d="M66.5688 13.4258C66.5688 12.6152 67.1724 12.1479 68.2436 12.0815L69.4634 12.0112V11.6226C69.4634 11.147 69.1489 10.8784 68.5415 10.8784C68.0454 10.8784 67.7017 11.0605 67.603 11.3789H66.7427C66.8335 10.6055 67.561 10.1094 68.5825 10.1094C69.7114 10.1094 70.3481 10.6714 70.3481 11.6226V14.6992H69.4927V14.0664H69.4224C69.2796 14.2934 69.0792 14.4784 68.8416 14.6027C68.604 14.7269 68.3377 14.7858 68.0698 14.7734C67.8808 14.7931 67.6897 14.7729 67.509 14.7142C67.3282 14.6555 67.1618 14.5596 67.0203 14.4326C66.8789 14.3056 66.7657 14.1504 66.6879 13.977C66.6102 13.8036 66.5696 13.6158 66.5688 13.4258ZM69.4634 13.041V12.6645L68.3638 12.7349C67.7436 12.7764 67.4624 12.9873 67.4624 13.3843C67.4624 13.7895 67.814 14.0254 68.2974 14.0254C68.439 14.0397 68.5821 14.0254 68.7181 13.9833C68.8541 13.9412 68.9803 13.8722 69.0891 13.7804C69.1979 13.6885 69.2871 13.5757 69.3514 13.4487C69.4157 13.3217 69.4538 13.183 69.4634 13.041Z" fill="white"/>
<path d="M71.5161 12.4448C71.5161 11.022 72.2476 10.1206 73.3853 10.1206C73.6667 10.1077 73.946 10.1751 74.1905 10.315C74.435 10.4548 74.6347 10.6615 74.7661 10.9106H74.8325V8.4375H75.7212V14.6982H74.8696V13.9868H74.7993C74.6577 14.2343 74.4511 14.4383 74.2019 14.5768C73.9526 14.7153 73.6702 14.783 73.3853 14.7724C72.2398 14.7725 71.5161 13.8711 71.5161 12.4448ZM72.4341 12.4448C72.4341 13.3999 72.8843 13.9746 73.6372 13.9746C74.3862 13.9746 74.8492 13.3916 74.8492 12.4487C74.8492 11.5103 74.3814 10.919 73.6372 10.919C72.8892 10.919 72.4341 11.4976 72.4341 12.4448H72.4341Z" fill="white"/>
<path d="M79.398 12.4458C79.3697 12.1498 79.4035 11.8513 79.4974 11.5692C79.5912 11.2871 79.743 11.0278 79.9429 10.8078C80.1428 10.5878 80.3866 10.4121 80.6584 10.2918C80.9303 10.1715 81.2243 10.1094 81.5215 10.1094C81.8188 10.1094 82.1128 10.1715 82.3846 10.2918C82.6565 10.4121 82.9002 10.5878 83.1001 10.8078C83.3001 11.0278 83.4518 11.2871 83.5457 11.5692C83.6395 11.8513 83.6734 12.1498 83.6451 12.4458C83.6739 12.742 83.6404 13.041 83.5469 13.3235C83.4533 13.606 83.3016 13.8658 83.1016 14.0862C82.9016 14.3067 82.6577 14.4828 82.3856 14.6033C82.1135 14.7239 81.8191 14.7861 81.5215 14.7861C81.2239 14.7861 80.9296 14.7239 80.6574 14.6033C80.3853 14.4828 80.1414 14.3067 79.9414 14.0862C79.7414 13.8658 79.5898 13.606 79.4962 13.3235C79.4026 13.041 79.3691 12.742 79.398 12.4458ZM82.731 12.4458C82.731 11.4697 82.2925 10.8989 81.523 10.8989C80.7505 10.8989 80.316 11.4697 80.316 12.4458C80.316 13.4297 80.7506 13.9961 81.523 13.9961C82.2925 13.996 82.731 13.4257 82.731 12.4458Z" fill="white"/>
<path d="M84.8374 10.1949H85.6929V10.9102H85.7593C85.8719 10.6533 86.0619 10.4379 86.3028 10.2941C86.5437 10.1503 86.8234 10.0852 87.103 10.1079C87.3221 10.0915 87.5421 10.1245 87.7467 10.2046C87.9513 10.2847 88.1353 10.4098 88.285 10.5707C88.4346 10.7315 88.5462 10.924 88.6114 11.1338C88.6766 11.3436 88.6938 11.5654 88.6616 11.7827V14.6977H87.773V12.0059C87.773 11.2823 87.4585 10.9224 86.8013 10.9224C86.6525 10.9155 86.504 10.9408 86.366 10.9966C86.2279 11.0525 86.1036 11.1375 86.0014 11.2459C85.8993 11.3543 85.8218 11.4834 85.7743 11.6246C85.7268 11.7657 85.7103 11.9154 85.7261 12.0635V14.6978H84.8374V10.1949Z" fill="white"/>
<path d="M93.6831 9.07422V10.2158H94.6587V10.9644H93.6831V13.2798C93.6831 13.7515 93.8774 13.958 94.3198 13.958C94.4331 13.9576 94.5462 13.9508 94.6587 13.9375V14.6777C94.4991 14.7063 94.3374 14.7215 94.1753 14.7231C93.187 14.7231 92.7935 14.3755 92.7935 13.5073V10.9643H92.0786V10.2158H92.7935V9.07422H93.6831Z" fill="white"/>
<path d="M95.8726 8.4375H96.7534V10.919H96.8237C96.9419 10.6596 97.1371 10.443 97.3828 10.2987C97.6285 10.1543 97.9127 10.0893 98.1967 10.1123C98.4147 10.1004 98.6326 10.1368 98.8349 10.2189C99.0371 10.3009 99.2188 10.4266 99.3669 10.5869C99.5151 10.7473 99.626 10.9383 99.6917 11.1465C99.7575 11.3546 99.7766 11.5747 99.7475 11.791V14.6982H98.8579V12.0103C98.8579 11.291 98.5229 10.9268 97.8951 10.9268C97.7423 10.9142 97.5887 10.9352 97.4449 10.9883C97.3011 11.0413 97.1707 11.1252 97.0627 11.2339C96.9547 11.3426 96.8718 11.4737 96.8197 11.6178C96.7676 11.7619 96.7477 11.9157 96.7613 12.0683V14.6982H95.8726L95.8726 8.4375Z" fill="white"/>
<path d="M104.929 13.4815C104.808 13.8931 104.547 14.249 104.19 14.4872C103.833 14.7253 103.404 14.8305 102.978 14.7842C102.681 14.7921 102.386 14.7353 102.114 14.6177C101.841 14.5002 101.598 14.3248 101.4 14.1036C101.202 13.8825 101.055 13.6209 100.968 13.3371C100.881 13.0533 100.857 12.754 100.898 12.46C100.858 12.1652 100.883 11.8652 100.969 11.5805C101.056 11.2959 101.202 11.0331 101.399 10.81C101.596 10.587 101.839 10.4088 102.11 10.2876C102.382 10.1664 102.677 10.105 102.974 10.1075C104.227 10.1075 104.983 10.9635 104.983 12.3775V12.6876H101.803V12.7374C101.789 12.9026 101.81 13.069 101.864 13.2257C101.918 13.3825 102.005 13.5262 102.117 13.6476C102.23 13.7691 102.367 13.8656 102.52 13.931C102.672 13.9964 102.837 14.0292 103.002 14.0274C103.215 14.0529 103.43 14.0146 103.621 13.9174C103.812 13.8202 103.969 13.6685 104.074 13.4815L104.929 13.4815ZM101.803 12.0303H104.078C104.089 11.8792 104.068 11.7274 104.017 11.5847C103.966 11.442 103.886 11.3115 103.782 11.2016C103.677 11.0918 103.551 11.005 103.411 10.9468C103.271 10.8886 103.121 10.8604 102.969 10.8638C102.815 10.8619 102.663 10.8908 102.521 10.9487C102.378 11.0067 102.249 11.0925 102.14 11.2012C102.031 11.3099 101.946 11.4393 101.888 11.5817C101.83 11.7241 101.801 11.8766 101.803 12.0303H101.803Z" fill="white"/>
</g>
<defs>
<clipPath id="clip0_719_207020">
<rect width="119.664" height="40" fill="white" transform="translate(0.167969)"/>
</clipPath>
</defs>
</svg>
