<svg width="136" height="40" viewBox="0 0 136 40" fill="none" xmlns="http://www.w3.org/2000/svg">
<g clip-path="url(#clip0_719_207018)">
<path d="M130.508 0H5.49199C2.73499 0 0.5 2.23485 0.5 4.99168V35.0083C0.5 37.7651 2.73499 40 5.49199 40H130.508C133.265 40 135.5 37.7651 135.5 35.0083V4.99168C135.5 2.23485 133.265 0 130.508 0Z" fill="black"/>
<path d="M130.508 0.798669C131.62 0.798669 132.687 1.24043 133.473 2.02677C134.259 2.81312 134.701 3.87962 134.701 4.99168V34.9418C134.701 36.0538 134.259 37.1203 133.473 37.9067C132.687 38.693 131.62 39.1348 130.508 39.1348H5.50859C4.40506 39.1349 3.34598 38.6999 2.56101 37.9244C1.77604 37.1488 1.32846 36.0951 1.31532 34.9917V5.0416C1.30871 4.48678 1.4123 3.93616 1.62007 3.42167C1.82784 2.90717 2.13567 2.43903 2.52571 2.04437C2.91575 1.64971 3.38025 1.33638 3.89228 1.12255C4.40431 0.908717 4.9537 0.79863 5.50859 0.798669H130.508ZM130.508 0H5.50859C4.18463 0 2.9149 0.525908 1.97872 1.46203C1.04254 2.39815 0.516602 3.6678 0.516602 4.99168V34.9418C0.516602 36.2656 1.04254 37.5353 1.97872 38.4714C2.9149 39.4075 4.18463 39.9334 5.50859 39.9334H130.508C131.832 39.9334 133.102 39.4075 134.038 38.4714C134.974 37.5353 135.5 36.2656 135.5 34.9418V4.99168C135.5 3.6678 134.974 2.39815 134.038 1.46203C133.102 0.525908 131.832 0 130.508 0V0Z" fill="#A6A6A6"/>
<path d="M47.9238 10.2338C47.9427 10.6026 47.886 10.9715 47.7573 11.3177C47.6285 11.6639 47.4304 11.9802 47.175 12.2471C46.8904 12.5388 46.5481 12.7679 46.1699 12.9198C45.7916 13.0716 45.3859 13.1429 44.9786 13.1289C44.5665 13.1334 44.1577 13.0555 43.7762 12.8999C43.3946 12.7443 43.048 12.514 42.7566 12.2227C42.4652 11.9313 42.2349 11.5847 42.0793 11.2031C41.9237 10.8216 41.8458 10.4128 41.8502 10.0008C41.8417 9.58381 41.9185 9.16946 42.0759 8.78319C42.2333 8.39693 42.4679 8.04689 42.7654 7.75456C43.0542 7.46259 43.3992 7.23238 43.7797 7.07792C44.1601 6.92346 44.568 6.84797 44.9786 6.85606C45.4017 6.85513 45.8206 6.94003 46.2099 7.10564C46.5702 7.25597 46.8896 7.4898 47.1418 7.78784L46.6093 8.30364C46.4063 8.0647 46.1498 7.87692 45.8607 7.75551C45.5717 7.6341 45.258 7.58247 44.9453 7.60481C44.6324 7.59997 44.3217 7.65916 44.0325 7.77872C43.7433 7.89829 43.4815 8.07571 43.2634 8.30009C43.0452 8.52448 42.8752 8.79109 42.7638 9.08355C42.6525 9.37602 42.602 9.68816 42.6157 10.0008C42.602 10.3135 42.6525 10.6256 42.7638 10.9181C42.8752 11.2105 43.0452 11.4771 43.2634 11.7015C43.4815 11.9259 43.7433 12.1033 44.0325 12.2229C44.3217 12.3425 44.6324 12.4017 44.9453 12.3968C45.2548 12.4049 45.5626 12.3484 45.8491 12.2309C46.1356 12.1135 46.3945 11.9376 46.6093 11.7146C46.9263 11.388 47.1102 10.9549 47.1251 10.5H44.9786V9.78451H47.8739C47.907 9.93198 47.9237 10.0826 47.9238 10.2338V10.2338Z" fill="white" stroke="white" stroke-width="0.2" stroke-miterlimit="10"/>
<path d="M52.5332 7.73703H49.8043V9.63387H52.267V10.3493H49.8043V12.2628H52.5332V12.9949H49.0222V6.98828H52.5332V7.73703Z" fill="white" stroke="white" stroke-width="0.2" stroke-miterlimit="10"/>
<path d="M55.7781 12.9949H55.0126V7.73703H53.3486V6.98828H57.4753V7.73703H55.8113L55.7781 12.9949Z" fill="white" stroke="white" stroke-width="0.2" stroke-miterlimit="10"/>
<path d="M60.4373 12.9949V6.98828H61.2193V12.9949H60.4373Z" fill="white" stroke="white" stroke-width="0.2" stroke-miterlimit="10"/>
<path d="M64.6304 12.9949H63.8649V7.73703H62.2009V6.98828H66.3276V7.73703H64.6636L64.6304 12.9949Z" fill="white" stroke="white" stroke-width="0.2" stroke-miterlimit="10"/>
<path d="M74.1151 12.2124C73.8404 12.5011 73.51 12.7311 73.1439 12.8884C72.7778 13.0457 72.3836 13.127 71.9851 13.1276C71.5751 13.1393 71.1672 13.0638 70.7885 12.9061C70.4099 12.7483 70.0691 12.5119 69.7887 12.2124C69.4967 11.9238 69.2665 11.5787 69.112 11.1983C68.9575 10.8178 68.882 10.41 68.8901 9.99946C68.8798 9.58617 68.9541 9.17514 69.1087 8.79168C69.2632 8.40823 69.4946 8.06047 69.7887 7.76985C70.0691 7.47042 70.4099 7.23399 70.7885 7.07622C71.1672 6.91845 71.5751 6.84295 71.9851 6.85471C72.3944 6.8491 72.8004 6.92741 73.1782 7.08481C73.5559 7.24221 73.8975 7.47535 74.1816 7.76985C74.4688 8.06469 74.6946 8.41358 74.846 8.7963C74.9974 9.17902 75.0713 9.58797 75.0635 9.99946C75.0623 10.4131 74.9776 10.8223 74.8147 11.2025C74.6517 11.5828 74.4138 11.9262 74.1151 12.2124V12.2124ZM70.3211 11.7133C70.534 11.9388 70.7926 12.1163 71.0795 12.234C71.3665 12.3516 71.6752 12.4067 71.9851 12.3955C72.2947 12.4035 72.6025 12.347 72.889 12.2296C73.1755 12.1121 73.4344 11.9363 73.6491 11.7133C74.0794 11.2666 74.3182 10.6696 74.3147 10.0494C74.3147 9.42987 74.0764 8.8341 73.6491 8.38549C73.4329 8.16549 73.1734 7.99274 72.887 7.87818C72.6005 7.76362 72.2935 7.70973 71.9851 7.71993C71.6763 7.70553 71.368 7.75748 71.081 7.87229C70.7939 7.9871 70.5348 8.1621 70.3211 8.38549C69.8878 8.8302 69.6485 9.42853 69.6555 10.0494C69.6502 10.3571 69.7063 10.6627 69.8206 10.9484C69.9349 11.2341 70.1051 11.4942 70.3211 11.7133Z" fill="white" stroke="white" stroke-width="0.2" stroke-miterlimit="10"/>
<path d="M76.0786 12.9949V6.98828H76.9772L79.9058 11.6638V10.4991V6.98828H80.6712V12.9949H79.8725L76.844 8.10309V9.25118V12.9949H76.0786Z" fill="white" stroke="white" stroke-width="0.2" stroke-miterlimit="10"/>
<path d="M68.6574 21.747C67.8149 21.7503 66.9922 22.0034 66.2936 22.4741C65.5949 22.9449 65.0515 23.6123 64.7321 24.3919C64.4127 25.1715 64.3317 26.0282 64.4993 26.8539C64.6669 27.6795 65.0756 28.4369 65.6737 29.0303C66.2717 29.6236 67.0323 30.0264 67.8593 30.1875C68.6863 30.3486 69.5424 30.2609 70.3195 29.9355C71.0967 29.6101 71.7598 29.0615 72.2252 28.3592C72.6905 27.6569 72.9371 26.8324 72.9338 25.9899C72.9406 25.4281 72.8344 24.8705 72.6215 24.3505C72.4086 23.8305 72.0933 23.3585 71.6943 22.9627C71.2954 22.5669 70.821 22.2554 70.2993 22.0465C69.7776 21.8377 69.2192 21.7358 68.6574 21.747V21.747ZM68.6574 28.569C68.141 28.6057 67.6256 28.4862 67.1781 28.2261C66.7305 27.9659 66.3717 27.5772 66.1481 27.1103C65.9245 26.6435 65.8466 26.1202 65.9245 25.6085C66.0024 25.0967 66.2324 24.6203 66.5847 24.2411C66.9371 23.8619 67.3954 23.5974 67.9 23.4822C68.4046 23.3669 68.9323 23.4062 69.4143 23.5948C69.8964 23.7834 70.3105 24.1128 70.6028 24.5399C70.8952 24.9671 71.0522 25.4723 71.0535 25.9899C71.0691 26.3175 71.0192 26.6448 70.9066 26.9528C70.794 27.2607 70.621 27.5431 70.3978 27.7833C70.1746 28.0236 69.9057 28.2168 69.6069 28.3517C69.308 28.4866 68.9852 28.5605 68.6574 28.569V28.569ZM59.339 21.747C58.4987 21.7602 57.6811 22.0215 56.989 22.4982C56.297 22.9749 55.7614 23.6456 55.4497 24.426C55.1379 25.2064 55.064 26.0615 55.2371 26.8838C55.4103 27.706 55.8228 28.4587 56.4228 29.0471C57.0228 29.6355 57.7834 30.0333 58.6089 30.1905C59.4345 30.3476 60.288 30.2571 61.0623 29.9303C61.8365 29.6035 62.4967 29.055 62.9599 28.3539C63.4231 27.6527 63.6685 26.8303 63.6654 25.9899C63.6749 25.4216 63.5683 24.8574 63.3521 24.3317C63.1359 23.806 62.8147 23.33 62.4081 22.9328C62.0015 22.5356 61.5181 22.2255 60.9875 22.0216C60.4569 21.8177 59.8903 21.7243 59.3223 21.747H59.339ZM59.339 28.569C58.8231 28.6023 58.3091 28.4799 57.8636 28.2175C57.4182 27.9552 57.0618 27.565 56.8409 27.0977C56.6199 26.6303 56.5445 26.1073 56.6244 25.5966C56.7043 25.0859 56.9359 24.6109 57.2891 24.2334C57.6423 23.8559 58.1007 23.5932 58.605 23.4795C59.1094 23.3657 59.6362 23.4062 60.1173 23.5955C60.5983 23.7848 61.0114 24.1144 61.3028 24.5413C61.5943 24.9683 61.7507 25.473 61.7518 25.9899C61.7674 26.3202 61.7164 26.6503 61.6018 26.9604C61.4871 27.2705 61.3112 27.5544 61.0845 27.7951C60.8578 28.0358 60.5849 28.2283 60.2822 28.3613C59.9794 28.4942 59.653 28.5649 59.3223 28.569H59.339ZM48.2734 23.0449V24.8585H52.5832C52.5197 25.7017 52.1738 26.4989 51.6014 27.1214C51.1708 27.5639 50.6521 27.911 50.0788 28.1403C49.5055 28.3696 48.8904 28.476 48.2734 28.4525C46.998 28.4525 45.7748 27.9459 44.873 27.0441C43.9711 26.1423 43.4645 24.9192 43.4645 23.6439C43.4645 22.3685 43.9711 21.1454 44.873 20.2436C45.7748 19.3418 46.998 18.8352 48.2734 18.8352C48.887 18.8154 49.4983 18.9202 50.0703 19.1433C50.6423 19.3664 51.1632 19.7031 51.6014 20.133L52.8827 18.8518C52.2848 18.2665 51.5772 17.805 50.8005 17.4938C50.0238 17.1826 49.1933 17.0277 48.3566 17.0382C47.4209 16.923 46.4714 17.0078 45.571 17.2871C44.6705 17.5664 43.8397 18.0338 43.1335 18.6583C42.4273 19.2828 41.8618 20.0502 41.4745 20.9097C41.0872 21.7692 40.887 22.7012 40.887 23.6439C40.887 24.5866 41.0872 25.5185 41.4745 26.378C41.8618 27.2375 42.4273 28.0049 43.1335 28.6294C43.8397 29.2539 44.6705 29.7213 45.571 30.0006C46.4714 30.2799 47.4209 30.3648 48.3566 30.2495C49.1698 30.2943 49.9834 30.1685 50.7451 29.8803C51.5068 29.592 52.1997 29.1477 52.7795 28.5758C53.3593 28.0039 53.8131 27.317 54.1117 26.5594C54.4103 25.8017 54.5471 24.99 54.5134 24.1763C54.5412 23.7997 54.5412 23.4215 54.5134 23.0449H48.2734ZM93.6173 24.5257C93.3608 23.7562 92.8733 23.0845 92.2212 22.6021C91.5691 22.1198 90.7841 21.8502 89.9731 21.8302C89.4277 21.834 88.8887 21.9482 88.3886 22.1657C87.8884 22.3833 87.4374 22.6998 87.0628 23.0962C86.6881 23.4925 86.3975 23.9606 86.2085 24.4722C86.0195 24.9838 85.936 25.5284 85.9629 26.0731C85.9494 26.6334 86.0492 27.1906 86.2564 27.7113C86.4636 28.232 86.7739 28.7055 87.1686 29.1033C87.5634 29.5012 88.0344 29.8151 88.5535 30.0264C89.0726 30.2376 89.6291 30.3418 90.1895 30.3327C90.8769 30.3065 91.5478 30.1143 92.1447 29.7724C92.7417 29.4304 93.247 28.949 93.6173 28.3693L92.1696 27.4043C91.9496 27.7621 91.6411 28.0572 91.2739 28.2612C90.9066 28.4652 90.4931 28.5712 90.073 28.569C89.6403 28.5865 89.2124 28.4737 88.8445 28.2453C88.4767 28.0169 88.1858 27.6833 88.0096 27.2878L93.7005 24.9251L93.6173 24.5257ZM87.8266 25.9567C87.8064 25.648 87.8478 25.3383 87.9485 25.0458C88.0493 24.7533 88.2072 24.4838 88.4133 24.253C88.6193 24.0222 88.8692 23.8348 89.1485 23.7016C89.4277 23.5685 89.7307 23.4923 90.0397 23.4775C90.362 23.4577 90.683 23.5322 90.9637 23.6917C91.2444 23.8513 91.4726 24.089 91.6205 24.376L87.8266 25.9567ZM83.1341 29.9833H84.9978V17.4875H83.1341V29.9833ZM80.0724 22.6954C79.7892 22.3883 79.444 22.1448 79.0595 21.9813C78.6751 21.8178 78.2603 21.7379 77.8426 21.747C76.761 21.8147 75.7459 22.2921 75.0039 23.0819C74.2619 23.8717 73.8489 24.9146 73.8489 25.9983C73.8489 27.0819 74.2619 28.1248 75.0039 28.9146C75.7459 29.7045 76.761 30.1818 77.8426 30.2495C78.262 30.2598 78.6786 30.1788 79.0636 30.0122C79.4486 29.8455 79.7928 29.5972 80.0724 29.2845V29.2845V29.9001C80.1198 30.2203 80.0954 30.547 80.0008 30.8565C79.9063 31.1661 79.7439 31.4507 79.5256 31.6897C79.3073 31.9287 79.0386 32.1161 78.7388 32.2382C78.4391 32.3604 78.1159 32.4143 77.7927 32.3959C77.3281 32.381 76.8782 32.2294 76.4993 31.9601C76.1205 31.6908 75.8295 31.3157 75.6628 30.8818L73.9988 31.5473C74.3039 32.2932 74.8249 32.9308 75.4949 33.3785C76.165 33.8262 76.9536 34.0634 77.7594 34.0598C78.332 34.0903 78.9043 33.9935 79.4349 33.7762C79.9656 33.5589 80.4414 33.2266 80.8282 32.8033C81.2149 32.3799 81.503 31.8761 81.6715 31.328C81.8401 30.78 81.885 30.2014 81.8029 29.6339V21.9966H80.0724V22.6954ZM77.9258 28.569C77.2923 28.4969 76.7074 28.1942 76.2828 27.7185C75.8581 27.2429 75.6234 26.6276 75.6234 25.9899C75.6234 25.3523 75.8581 24.737 76.2828 24.2614C76.7074 23.7857 77.2923 23.483 77.9258 23.4109C78.2481 23.4254 78.5641 23.5049 78.855 23.6445C79.1458 23.7841 79.4054 23.981 79.6183 24.2234C79.8312 24.4658 79.9929 24.7487 80.0938 25.0551C80.1947 25.3615 80.2327 25.6851 80.2055 26.0066C80.2304 26.3259 80.1905 26.6469 80.0884 26.9504C79.9862 27.2539 79.8239 27.5336 79.611 27.7729C79.3981 28.0122 79.1392 28.206 78.8496 28.3428C78.56 28.4796 78.2458 28.5565 77.9258 28.569V28.569ZM102.303 17.4875H97.8439V29.9833H99.7075V25.2578H102.303C102.835 25.2926 103.368 25.218 103.87 25.0385C104.371 24.859 104.831 24.5785 105.22 24.2143C105.608 23.8501 105.918 23.41 106.13 22.9212C106.342 22.4324 106.452 21.9054 106.452 21.3726C106.452 20.8399 106.342 20.3128 106.13 19.8241C105.918 19.3353 105.608 18.8952 105.22 18.531C104.831 18.1668 104.371 17.8863 103.87 17.7068C103.368 17.5273 102.835 17.4526 102.303 17.4875V17.4875ZM102.303 23.5107H99.7075V19.2345H102.353C102.65 19.2083 102.949 19.2442 103.231 19.3397C103.513 19.4353 103.772 19.5885 103.992 19.7895C104.211 19.9906 104.387 20.2352 104.507 20.5078C104.627 20.7803 104.689 21.0749 104.689 21.3726C104.689 21.6704 104.627 21.965 104.507 22.2375C104.387 22.51 104.211 22.7546 103.992 22.9557C103.772 23.1568 103.513 23.31 103.231 23.4056C102.949 23.5011 102.65 23.5369 102.353 23.5107H102.303ZM113.835 21.7137C113.154 21.6752 112.477 21.8356 111.886 22.1754C111.295 22.5152 110.816 23.0196 110.507 23.6272L112.171 24.3261C112.33 24.0293 112.572 23.7851 112.868 23.6227C113.163 23.4603 113.499 23.3868 113.835 23.4109C114.074 23.3881 114.315 23.4134 114.543 23.4851C114.772 23.5569 114.984 23.6738 115.167 23.8289C115.35 23.9839 115.501 24.1741 115.609 24.388C115.717 24.602 115.782 24.8355 115.798 25.0748V25.1913C115.197 24.8772 114.53 24.7117 113.852 24.7087C112.071 24.7087 110.257 25.6904 110.257 27.5207C110.274 27.907 110.368 28.286 110.534 28.6353C110.7 28.9847 110.933 29.2973 111.222 29.5547C111.51 29.8122 111.848 30.0092 112.213 30.1343C112.579 30.2593 112.967 30.3098 113.352 30.2828C113.823 30.3115 114.293 30.2122 114.712 29.9954C115.131 29.7786 115.483 29.4524 115.732 29.0515V29.0515V30.0166H117.529V25.1746C117.534 24.7029 117.443 24.2352 117.259 23.8006C117.075 23.3661 116.804 22.9741 116.462 22.6492C116.12 22.3243 115.714 22.0736 115.271 21.9126C114.828 21.7516 114.356 21.6839 113.885 21.7137H113.835ZM113.619 28.569C113.003 28.569 112.154 28.2695 112.154 27.5041C112.154 26.7387 113.219 26.173 114.134 26.173C114.716 26.1639 115.29 26.3073 115.798 26.5889C115.733 27.1166 115.483 27.6043 115.094 27.9664C114.704 28.3284 114.2 28.5418 113.668 28.569H113.619ZM124.202 21.9966L122.055 27.4209L119.842 21.9966H117.812L121.14 29.5673L119.243 33.777H121.19L126.315 21.9966H124.202ZM107.395 29.9833H109.259V17.4875H107.445L107.395 29.9833Z" fill="white"/>
<path d="M10.95 7.53827C10.7727 7.7241 10.6343 7.94344 10.5429 8.18344C10.4514 8.42344 10.4088 8.67927 10.4175 8.93594V31.0491C10.3864 31.5627 10.5531 32.0688 10.8834 32.4634V32.4634L23.2802 20.0674V19.7845L11.0166 7.45508L10.95 7.53827Z" fill="url(#paint0_linear_719_207018)"/>
<path d="M27.54 24.277L23.4133 20.1339V19.8511L27.54 15.7246H27.6232L32.5154 18.5033C33.9131 19.302 33.9131 20.5998 32.5154 21.3818L27.6232 24.1606L27.54 24.277Z" fill="url(#paint1_linear_719_207018)"/>
<path d="M27.6232 24.2097L23.4133 20L10.95 32.4626C11.2437 32.6947 11.6072 32.821 11.9816 32.821C12.3561 32.821 12.7195 32.6947 13.0133 32.4626L27.6232 24.1431" fill="url(#paint2_linear_719_207018)"/>
<path d="M27.6232 15.7736L13.0133 7.4541C12.7195 7.22197 12.3561 7.0957 11.9816 7.0957C11.6072 7.0957 11.2437 7.22197 10.95 7.4541L23.4133 19.9167L27.6232 15.7736Z" fill="url(#paint3_linear_719_207018)"/>
<path opacity="0.2" d="M27.5398 24.127L13.0132 32.4464C12.7251 32.6624 12.3748 32.7792 12.0148 32.7792C11.6547 32.7792 11.3044 32.6624 11.0164 32.4464V32.4464V32.5296C11.3044 32.7456 11.6547 32.8624 12.0148 32.8624C12.3748 32.8624 12.7251 32.7456 13.0132 32.5296L27.623 24.2101L27.5398 24.127Z" fill="black"/>
<path opacity="0.12" d="M10.95 32.3127C10.5925 31.9302 10.401 31.4217 10.4175 30.8984V31.0482C10.3864 31.5618 10.5531 32.0679 10.8834 32.4625V32.3793L10.95 32.3127Z" fill="black"/>
<path opacity="0.12" d="M32.5152 21.2978L27.5232 24.1265L27.6064 24.2097L32.4985 21.4309C32.7851 21.3077 33.0335 21.11 33.2178 20.8584C33.4022 20.6068 33.5158 20.3104 33.5469 20V20C33.4867 20.2813 33.3623 20.5448 33.1833 20.77C33.0043 20.9951 32.7756 21.1758 32.5152 21.2978V21.2978Z" fill="black"/>
<path opacity="0.25" d="M13.0133 7.62099L32.5154 18.7025C32.7812 18.8192 33.0152 18.9979 33.1976 19.2237C33.38 19.4496 33.5056 19.7159 33.5637 20.0004C33.5355 19.687 33.4232 19.3872 33.2386 19.1324C33.0541 18.8776 32.8042 18.6773 32.5154 18.5528L13.0133 7.47124C11.6156 6.67257 10.4175 7.33812 10.4175 8.93546V9.08521C10.4175 7.48787 11.6156 6.82232 13.0133 7.62099Z" fill="white"/>
</g>
<defs>
<linearGradient id="paint0_linear_719_207018" x1="22.2984" y1="8.703" x2="5.5264" y2="25.4927" gradientUnits="userSpaceOnUse">
<stop stop-color="#00A0FF"/>
<stop offset="0.01" stop-color="#00A1FF"/>
<stop offset="0.26" stop-color="#00BEFF"/>
<stop offset="0.51" stop-color="#00D2FF"/>
<stop offset="0.76" stop-color="#00DFFF"/>
<stop offset="1" stop-color="#00E3FF"/>
</linearGradient>
<linearGradient id="paint1_linear_719_207018" x1="34.3458" y1="20.0008" x2="10.1513" y2="20.0008" gradientUnits="userSpaceOnUse">
<stop stop-color="#FFE000"/>
<stop offset="0.41" stop-color="#FFBD00"/>
<stop offset="0.78" stop-color="#FFA500"/>
<stop offset="1" stop-color="#FF9C00"/>
</linearGradient>
<linearGradient id="paint2_linear_719_207018" x1="25.3269" y1="22.2795" x2="2.58145" y2="45.043" gradientUnits="userSpaceOnUse">
<stop stop-color="#FF3A44"/>
<stop offset="1" stop-color="#C31162"/>
</linearGradient>
<linearGradient id="paint3_linear_719_207018" x1="7.805" y1="0.166249" x2="17.9714" y2="10.3333" gradientUnits="userSpaceOnUse">
<stop stop-color="#32A071"/>
<stop offset="0.07" stop-color="#2DA771"/>
<stop offset="0.48" stop-color="#15CF74"/>
<stop offset="0.8" stop-color="#06E775"/>
<stop offset="1" stop-color="#00F076"/>
</linearGradient>
<clipPath id="clip0_719_207018">
<rect width="135" height="40" fill="white" transform="translate(0.5)"/>
</clipPath>
</defs>
</svg>
