<svg xmlns="http://www.w3.org/2000/svg" viewBox="0 0 32 32"><defs><style>.cls-1{fill:#bf3383;}.cls-2{fill:#fff;}</style></defs><g id="Layer_2" data-name="Layer 2"><g id="Layer_1-2" data-name="Layer 1"><g id="ic_jiocinema" data-name="ic jiocinema"><g id="Group_111999" data-name="Group 111999"><path id="Rectangle_8850" data-name="Rectangle 8850" class="cls-1" d="M16,0h0A16,16,0,0,1,32,16h0A16,16,0,0,1,16,32h0A16,16,0,0,1,0,16H0A16,16,0,0,1,16,0Z"/></g><g id="Group_112005" data-name="Group 112005"><g id="Group_112004" data-name="Group 112004"><g id="Group_112003" data-name="Group 112003"><g id="Group_112001" data-name="Group 112001"><path id="Path_4505" data-name="Path 4505" class="cls-2" d="M7.49,13.72v8.9a1.92,1.92,0,0,0,1.92,1.92h13.8a1.92,1.92,0,0,0,1.92-1.92V14.69a1,1,0,0,0-1-1H7.49M18.33,19.5l-2.56,2a.53.53,0,0,1-.75,0,.51.51,0,0,1-.15-.37V17.1a.52.52,0,0,1,.9-.37l2.56,2A.53.53,0,0,1,18.33,19.5Z"/></g><g id="Group_112002" data-name="Group 112002"><path id="Path_4506" data-name="Path 4506" class="cls-2" d="M24.83,10.33l-.27-1.94a1,1,0,0,0-1.09-.82l-.3,0-1,3.11-2.79.39,1-3.11-1.07.15-1.58.22-1,3.11L14,11.86l1-3.1-1.1.15-1.55.22-1,3.1-2.78.39,1-3.11L7.9,9.74a1,1,0,0,0-.82,1.08h0l.28,2,.13.93L24,11.42a1,1,0,0,0,.83-1.08Z"/></g></g></g></g></g></g></g></svg>