<svg xmlns="http://www.w3.org/2000/svg" viewBox="0 0 32 32"><defs><style>.cls-1{fill:#2a2d35;}.cls-2,.cls-4{fill:#fff;}.cls-3{fill:#64b9af;}.cls-3,.cls-4{fill-rule:evenodd;}</style></defs><g id="Layer_2" data-name="Layer 2"><g id="Layer_1-2" data-name="Layer 1"><circle class="cls-1" cx="16" cy="16" r="16"/><path class="cls-2" d="M8.92,19.32c-.25,0-.3.21-.3.28v.16a2.29,2.29,0,0,0,2.07,2.5,1.7,1.7,0,0,0,.39,0H13a.3.3,0,0,0,.28-.31.44.44,0,0,0-.06-.16A7.37,7.37,0,0,0,8.92,19.32Z"/><path class="cls-2" d="M19.76,8.71H16.94a.26.26,0,0,0-.26.28V9c.94,5.79-1.44,11.46-1.95,12.57-.07.18-.09.12-.09,0A35.24,35.24,0,0,0,10.87,8.87a.31.31,0,0,0-.3-.16c-.61,0-1.94.49-1.94,2.45V13a.27.27,0,0,0,.12.25A12.62,12.62,0,0,1,14,21.94c0,.24.07.32.24.32h.83c.18,0,.21-.12.27-.29a13.23,13.23,0,0,1,6.65-8,.27.27,0,0,0,.15-.24V11.16A2.32,2.32,0,0,0,20,8.71,1.34,1.34,0,0,0,19.76,8.71Z"/><path class="cls-2" d="M18.15,23.92H12.92a12.46,12.46,0,0,1-3.65-.28,2.81,2.81,0,0,1-1.88-1.88,12.13,12.13,0,0,1-.29-3.65V13a12.15,12.15,0,0,1,.29-3.66A2.89,2.89,0,0,1,9.27,7.47a12.81,12.81,0,0,1,3.65-.28H18a13.25,13.25,0,0,1,3.66.28,2.93,2.93,0,0,1,1.88,1.89A12.85,12.85,0,0,1,23.82,13v5.14a4.72,4.72,0,0,1,1.11.64V12.58a12.18,12.18,0,0,0-.33-3.9,4.06,4.06,0,0,0-2.43-2.43,12.18,12.18,0,0,0-3.9-.33H12.5a12.27,12.27,0,0,0-3.91.33A4.06,4.06,0,0,0,6.16,8.68a12.47,12.47,0,0,0-.32,3.9v5.79a12.56,12.56,0,0,0,.32,3.91,4.06,4.06,0,0,0,2.43,2.43A12.87,12.87,0,0,0,12.5,25h6.32A4.89,4.89,0,0,1,18.15,23.92Z"/><path class="cls-2" d="M18.34,20.29a8.41,8.41,0,0,0-1.88,1.48.29.29,0,0,0,0,.41.3.3,0,0,0,.18.08h1.16A4.26,4.26,0,0,1,18.34,20.29Z"/><path class="cls-3" d="M22.3,18.35a3.87,3.87,0,1,1-3.86,3.88v0A3.87,3.87,0,0,1,22.3,18.35Z"/><path class="cls-4" d="M24.07,20.36c0-.62-.31-.6-.69-.5l-1.51.42c-.65.19-.67.12-.66,1v1.62a.71.71,0,0,0-.32-.07.81.81,0,1,0,.81.81V20.88l1.83-.52v1.88a.8.8,0,0,0-.3-.06.82.82,0,1,0,.82.82h0Z"/></g></g></svg>