<svg xmlns="http://www.w3.org/2000/svg" xmlns:xlink="http://www.w3.org/1999/xlink" viewBox="0 0 32 32"><defs><style>.cls-1{fill:none;}.cls-2{clip-path:url(#clip-path);}.cls-3{fill:#272c6f;}.cls-4,.cls-5{fill:#fff;}.cls-5{isolation:isolate;opacity:0.1;}</style><clipPath id="clip-path" transform="translate(0 0)"><path class="cls-1" d="M16,0h0A16,16,0,0,1,32,16h0A16,16,0,0,1,16,32h0A16,16,0,0,1,0,16H0A16,16,0,0,1,16,0Z"/></clipPath></defs><g id="Layer_2" data-name="Layer 2"><g id="Layer_1-2" data-name="Layer 1"><g id="ic_jiocinema" data-name="ic jiocinema"><g id="Group_111999" data-name="Group 111999"><g class="cls-2"><g id="Mask_Group_137204" data-name="Mask Group 137204"><g id="ic_jiosecurity" data-name="ic jiosecurity"><g id="ic_jiosecurity-2" data-name="ic jiosecurity-2"><rect id="Rectangle_9861" data-name="Rectangle 9861" class="cls-3" width="32" height="32" rx="6.4"/><path id="Path_11931" data-name="Path 11931" class="cls-4" d="M25.33,7.72a.65.65,0,0,0-.61-.14,12.13,12.13,0,0,1-8-1.91,1.46,1.46,0,0,0-1.56,0,11.66,11.66,0,0,1-8,1.91.67.67,0,0,0-.61.14.82.82,0,0,0-.28.54v4.29c0,5.92,3.41,10.34,9,13.14a1.46,1.46,0,0,0,1.29,0c5.52-2.79,9-7.29,9-13.14V8.33A.66.66,0,0,0,25.33,7.72Zm-4.69,5.65-5.45,5.45a1,1,0,0,1-.68.27.79.79,0,0,1-.69-.27l-2.38-2.39A1,1,0,0,1,12.83,15l0,0,1.71,1.71L19.34,12a1,1,0,0,1,1.4,0l0,0a1.12,1.12,0,0,1-.14,1.42Z" transform="translate(0 0)"/><rect id="Rectangle_9862" data-name="Rectangle 9862" class="cls-5" width="32" height="32" rx="6.4"/></g><g id="ic_jiosecurity-3" data-name="ic jiosecurity-3"><g id="Group_47" data-name="Group 47"><rect id="Rectangle_9863" data-name="Rectangle 9863" class="cls-5" width="32" height="32" rx="6.4"/></g></g></g></g></g></g></g></g></g></svg>