<svg xmlns="http://www.w3.org/2000/svg" viewBox="0 0 32 32"><defs><style>.cls-1{fill:#d13732;}.cls-2{fill:#fff;}</style></defs><g id="Layer_2" data-name="Layer 2"><g id="Layer_1-2" data-name="Layer 1"><g id="ic_jiotv" data-name="ic jiotv"><path id="Rectangle_9855" data-name="Rectangle 9855" class="cls-1" d="M16,0h0A16,16,0,0,1,32,16h0A16,16,0,0,1,16,32h0A16,16,0,0,1,0,16H0A16,16,0,0,1,16,0Z"/><g id="Group_16" data-name="Group 16"><path id="Path_11940" data-name="Path 11940" class="cls-2" d="M18.31,22.52h-5a1,1,0,1,0,0,1.95h5a1,1,0,0,0,1-1,1,1,0,0,0-.93-1Z"/><path id="Path_11941" data-name="Path 11941" class="cls-2" d="M23.45,7.68H8.22A1.77,1.77,0,0,0,6.4,9.39v9.16a1.82,1.82,0,0,0,1.81,1.82H23.52a1.82,1.82,0,0,0,1.82-1.81h0V9.44A1.87,1.87,0,0,0,23.45,7.68Zm-5.27,7-3.13,2.47a.65.65,0,0,1-.92,0,.67.67,0,0,1-.18-.44V11.85a.66.66,0,0,1,.66-.65.64.64,0,0,1,.44.19l3.13,2.47a.64.64,0,0,1,0,.85Z"/></g></g></g></g></svg>