<svg xmlns="http://www.w3.org/2000/svg" viewBox="0 0 32 32"><defs><style>.cls-1{fill:#e30513;}.cls-2{fill:#fff;}</style></defs><g id="Layer_2" data-name="Layer 2"><g id="Layer_1-2" data-name="Layer 1"><path id="Path_1" data-name="Path 1" class="cls-1" d="M16,0A16,16,0,1,0,32,16,16,16,0,0,0,16,0Z"/><path id="Path_2" data-name="Path 2" class="cls-2" d="M11.31,9.65h-.53c-1,0-1.56.58-1.56,1.72v5.5c0,1.41-.48,1.91-1.61,1.91a2.7,2.7,0,0,1-2.17-1.09,1.86,1.86,0,0,0-1.22,1.84c0,1.48,1.39,2.38,3.94,2.38,3.12,0,4.76-1.56,4.76-5V11.36C12.92,10.22,12.35,9.65,11.31,9.65Zm4.82,2.78h-.37c-.9,0-1.59.42-1.59,1.72v5.9c0,1.3.66,1.72,1.62,1.72h.37c.9,0,1.54-.45,1.54-1.72v-5.9c0-1.33-.61-1.72-1.57-1.72Zm-.21-4.27a1.65,1.65,0,0,0-1.85,1.42,1.85,1.85,0,0,0,0,.23c0,1,.74,1.67,1.91,1.67a1.65,1.65,0,0,0,1.85-1.42,2,2,0,0,0,0-.25C17.85,8.79,17.1,8.16,15.92,8.16Zm7.79,4.18c-3,0-5,1.91-5,4.77s1.93,4.8,5,4.8,5-1.88,5-4.79A4.62,4.62,0,0,0,23.71,12.34Zm0,6.87a2.1,2.1,0,1,1,2-2.2v.11a2,2,0,0,1-1.9,2.09Z"/></g></g></svg>